<!-- Generated by IcoMoon.io -->
<svg version="1.1" xmlns="http://www.w3.org/2000/svg" width="24" height="24" viewBox="0 0 24 24">
<title>forum</title>
<path d="M7.16 11.208h-3.113c-2.208 0-4.019-1.811-4.019-4.019v-3.17c0-2.208 1.811-4.019 4.019-4.019h3.113c2.208 0 4.019 1.811 4.019 4.019v3.113c0.057 2.264-1.755 4.075-4.019 4.075v0zM4.047 1.698c-1.302 0-2.321 1.075-2.321 2.321v3.113c0 1.302 1.075 2.321 2.321 2.321h3.113c1.302 0 2.321-1.075 2.321-2.321v-3.113c0-1.302-1.075-2.321-2.321-2.321h-3.113zM19.953 11.208h-3.113c-2.208 0-4.019-1.811-4.019-4.019v-3.17c0-2.208 1.811-4.019 4.019-4.019h3.113c2.208 0 4.019 1.811 4.019 4.019v3.113c0 2.264-1.811 4.075-4.019 4.075v0zM16.84 1.698c-1.302 0-2.321 1.075-2.321 2.321v3.113c0 1.302 1.075 2.321 2.321 2.321h3.113c1.302 0 2.321-1.075 2.321-2.321v-3.113c0-1.302-1.075-2.321-2.321-2.321h-3.113zM7.16 24h-3.113c-2.208 0-4.019-1.811-4.019-4.019v-3.113c0-2.208 1.811-4.019 4.019-4.019h3.113c2.208 0 4.019 1.811 4.019 4.019v3.113c0.057 2.208-1.755 4.019-4.019 4.019v0zM4.047 14.491c-1.302 0-2.321 1.075-2.321 2.321v3.113c0 1.302 1.075 2.321 2.321 2.321h3.113c1.302 0 2.321-1.075 2.321-2.321v-3.113c0-1.302-1.075-2.321-2.321-2.321h-3.113z"></path>
<path d="M22.5 15.792h-8.038c-0.453 0-0.849-0.396-0.849-0.849s0.396-0.849 0.849-0.849h8.094c0.453 0 0.849 0.396 0.849 0.849s-0.453 0.849-0.906 0.849v0zM21.142 19.585h-6.679c-0.453 0-0.849-0.396-0.849-0.849s0.396-0.849 0.849-0.849h6.679c0.453 0 0.849 0.396 0.849 0.849s-0.396 0.849-0.849 0.849zM17.802 23.434h-3.34c-0.453 0-0.849-0.396-0.849-0.849s0.396-0.849 0.849-0.849h3.34c0.453 0 0.849 0.396 0.849 0.849s-0.396 0.849-0.849 0.849z"></path>
</svg>
