<!-- Generated by IcoMoon.io -->
<svg version="1.1" xmlns="http://www.w3.org/2000/svg" width="24" height="24" viewBox="0 0 24 24">
<title>issue</title>
<path d="M20.51 5.573l-5.011-5.074c-0.105-0.105-0.22-0.195-0.345-0.27-0.033-0.019-0.066-0.037-0.101-0.054-0.021-0.012-0.045-0.021-0.066-0.030-0.211-0.094-0.443-0.145-0.68-0.145h-6.586c-0.933 0-1.711 0.755-1.711 1.688v1.312h-1.301c-0.933 0-1.699 0.764-1.699 1.697v17.625c0 0.933 0.766 1.678 1.699 1.678h11.602c0.933 0 1.676-0.745 1.676-1.678v-1.322h1.336c0.933 0 1.664-0.755 1.664-1.688v-12.551c0-0.445-0.164-0.872-0.478-1.188zM15.176 2.588l3.206 3.225h-3.206v-3.225zM16.301 22.313h-11.602v-17.625h1.313v14.625c0 0.933 0.778 1.688 1.711 1.688h8.578v1.313zM19.301 19.313h-11.602v-17.625h5.789v4.125c0 0.933 0.778 1.688 1.711 1.688h4.102v11.813z"></path>
</svg>
