<!-- Generated by IcoMoon.io -->
<svg version="1.1" xmlns="http://www.w3.org/2000/svg" width="24" height="24" viewBox="0 0 24 24">
<title>schedule</title>
<path d="M20.51 7.073l-6.511-6.574c-0.105-0.105-0.22-0.195-0.345-0.27-0.033-0.019-0.066-0.037-0.101-0.054-0.021-0.012-0.045-0.021-0.066-0.030-0.211-0.094-0.443-0.145-0.68-0.145h-8.086c-0.933 0-1.711 0.755-1.711 1.688v20.625c0 0.933 0.778 1.688 1.711 1.688h14.602c0.933 0 1.664-0.755 1.664-1.688v-14.051c0-0.445-0.164-0.872-0.478-1.188zM13.676 2.588l4.706 4.725h-4.706v-4.725zM19.301 22.313h-14.602v-20.625h7.289v5.625c0 0.933 0.778 1.688 1.711 1.688h5.602v13.313zM13.699 11.344c0-0.466-0.377-0.844-0.844-0.844h-6c-0.466 0-0.844 0.377-0.844 0.844s0.377 0.844 0.844 0.844h6c0.466 0 0.844-0.377 0.844-0.844zM18.199 15.094c0-0.466-0.377-0.844-0.844-0.844h-10.5c-0.466 0-0.844 0.377-0.844 0.844s0.377 0.844 0.844 0.844h10.5c0.466 0 0.844-0.377 0.844-0.844zM15.199 18.844c0-0.466-0.377-0.844-0.844-0.844h-7.5c-0.466 0-0.844 0.377-0.844 0.844s0.377 0.844 0.844 0.844h7.5c0.466 0 0.844-0.377 0.844-0.844z"></path>
</svg>
