<!-- Generated by IcoMoon.io -->
<svg version="1.1" xmlns="http://www.w3.org/2000/svg" width="18" height="24" viewBox="0 0 18 24">
<title>bell</title>
<path d="M17.156 19.5h-0.656v-10.5c0-3.858-2.911-7.034-6.656-7.453v-0.703c0-0.466-0.377-0.844-0.844-0.844s-0.844 0.377-0.844 0.844v0.703c-3.745 0.42-6.656 3.595-6.656 7.453v10.5h-0.656c-0.466 0-0.844 0.377-0.844 0.844s0.377 0.844 0.844 0.844h6.469v1.125c0 0.933 0.755 1.688 1.688 1.688s1.688-0.755 1.688-1.688v-1.125h6.469c0.466 0 0.844-0.377 0.844-0.844s-0.377-0.844-0.844-0.844zM14.813 19.5h-11.625v-10.5c0-3.211 2.602-5.813 5.813-5.813s5.813 2.602 5.813 5.813v10.5z"></path>
</svg>
