<!-- Generated by IcoMoon.io -->
<svg version="1.1" xmlns="http://www.w3.org/2000/svg" width="24" height="24" viewBox="0 0 24 24">
<title>calendar</title>
<path d="M21.614 2.182h-3.068v-0.716c0-0.509-0.412-0.92-0.92-0.92s-0.92 0.412-0.92 0.92v0.716h-9.409v-0.716c0-0.509-0.412-0.92-0.92-0.92s-0.92 0.412-0.92 0.92v0.716h-3.068c-1.018 0-1.841 0.823-1.841 1.841v17.591c0 1.018 0.823 1.841 1.841 1.841h19.227c1.018 0 1.841-0.826 1.841-1.841v-17.591c0-1.018-0.823-1.841-1.841-1.841zM2.386 4.023h3.068v0.511c0 0.509 0.412 0.92 0.92 0.92s0.92-0.412 0.92-0.92v-0.511h9.409v0.511c0 0.509 0.412 0.92 0.92 0.92s0.92-0.412 0.92-0.92v-0.511h3.068v2.864h-19.227v-2.864zM21.614 21.614h-19.227v-12.886h19.227v12.886zM6.273 12h1.636c0.453 0 0.818 0.366 0.818 0.818s-0.366 0.818-0.818 0.818h-1.636c-0.453 0-0.818-0.366-0.818-0.818s0.366-0.818 0.818-0.818zM11.182 12h1.636c0.453 0 0.818 0.366 0.818 0.818s-0.366 0.818-0.818 0.818h-1.636c-0.453 0-0.818-0.366-0.818-0.818s0.366-0.818 0.818-0.818zM16.091 12h1.636c0.453 0 0.818 0.366 0.818 0.818s-0.366 0.818-0.818 0.818h-1.636c-0.453 0-0.818-0.366-0.818-0.818s0.366-0.818 0.818-0.818zM6.273 16.96h1.636c0.453 0 0.818 0.366 0.818 0.818s-0.366 0.818-0.818 0.818h-1.636c-0.453 0-0.818-0.366-0.818-0.818s0.366-0.818 0.818-0.818zM11.182 16.96h1.636c0.453 0 0.818 0.366 0.818 0.818s-0.366 0.818-0.818 0.818h-1.636c-0.453 0-0.818-0.366-0.818-0.818s0.366-0.818 0.818-0.818z"></path>
</svg>
