<!-- Generated by IcoMoon.io -->
<svg version="1.1" xmlns="http://www.w3.org/2000/svg" width="24" height="24" viewBox="0 0 24 24">
<title>edit</title>
<path d="M22.534 21.614h-21.068c-0.509 0-0.92 0.412-0.92 0.92s0.412 0.92 0.92 0.92h21.068c0.509 0 0.92-0.412 0.92-0.92s-0.412-0.92-0.92-0.92zM6.477 18.597l6.021-2.549c0.097-0.041 0.184-0.1 0.261-0.174l10.156-10.156c0.718-0.718 0.724-1.889 0.005-2.608l-2.028-2.028c-0.718-0.718-1.889-0.713-2.608 0.005l-10.156 10.156c-0.074 0.074-0.133 0.164-0.174 0.261l-2.552 6.019c-0.143 0.337-0.043 0.678 0.174 0.897s0.56 0.32 0.9 0.176zM19.586 2.389l0.005-0.005 2.025 2.025-1.59 1.59-2.025-2.025 1.585-1.585zM9.571 12.404l7.128-7.128 2.025 2.025-7.128 7.128-3.513 1.488 1.488-3.513z"></path>
</svg>
