<!-- Generated by IcoMoon.io -->
<svg version="1.1" xmlns="http://www.w3.org/2000/svg" width="24" height="24" viewBox="0 0 24 24">
<title>filter</title>
<path d="M22.606 1.751c-0.36-0.872-1.204-1.434-2.149-1.434h-16.923c-0.942 0-1.786 0.563-2.149 1.434s-0.166 1.865 0.501 2.534l7.678 7.405v7.369c0 0.262 0.101 0.515 0.284 0.703l3.521 3.642c0.194 0.203 0.458 0.309 0.728 0.309 0.127 0 0.256-0.025 0.38-0.073 0.383-0.155 0.633-0.526 0.633-0.939v-11.059l6.989-7.355c0.669-0.669 0.866-1.662 0.506-2.537zM20.668 2.854l-7.284 7.653c-0.191 0.191-0.295 0.447-0.295 0.717v9.056l-1.496-1.631v-7.38c0-0.267-0.107-0.526-0.295-0.714l-7.976-7.701c-0.118-0.118-0.098-0.242-0.065-0.326s0.113-0.186 0.278-0.186h16.923c0.166 0 0.242 0.101 0.278 0.186 0.034 0.084 0.051 0.211-0.068 0.326z"></path>
</svg>
