<!-- Generated by IcoMoon.io -->
<svg version="1.1" xmlns="http://www.w3.org/2000/svg" width="24" height="24" viewBox="0 0 24 24">
<title>heart</title>
<path d="M23.417 5.806c-0.363-0.873-0.88-1.653-1.538-2.316-1.274-1.283-2.946-1.99-4.706-1.99-2.007 0-3.887 0.913-5.184 2.515-1.297-1.602-3.177-2.515-5.184-2.515-1.758 0-3.43 0.712-4.709 2.004-0.66 0.667-1.18 1.449-1.541 2.325-0.375 0.908-0.562 1.871-0.553 2.861 0.016 2.147 0.939 4.149 2.531 5.498 0.073 0.061 0.14 0.119 0.208 0.183 0.349 0.314 1.358 1.236 2.636 2.405 2.189 2.002 4.915 4.493 6.029 5.484 0.164 0.143 0.37 0.222 0.583 0.222 0.215 0 0.424-0.080 0.583-0.222 0.808-0.719 2.477-2.245 4.247-3.863 1.737-1.588 3.533-3.231 4.585-4.172 1.627-1.356 2.566-3.381 2.573-5.556 0.002-0.995-0.187-1.957-0.562-2.861z"></path>
</svg>
