<!-- Generated by IcoMoon.io -->
<svg version="1.1" xmlns="http://www.w3.org/2000/svg" width="24" height="24" viewBox="0 0 24 24">
<title>heart-o</title>
<path d="M23.417 5.806c-0.363-0.873-0.88-1.653-1.538-2.316-1.274-1.283-2.946-1.99-4.706-1.99-2.007 0-3.887 0.913-5.184 2.515-1.297-1.602-3.177-2.515-5.184-2.515-1.758 0-3.43 0.712-4.709 2.004-0.66 0.667-1.18 1.449-1.541 2.325-0.375 0.908-0.562 1.871-0.553 2.861 0.016 2.147 0.939 4.149 2.531 5.498 0.073 0.061 0.14 0.119 0.208 0.183 0.349 0.314 1.358 1.236 2.636 2.405 2.189 2.002 4.915 4.493 6.029 5.484 0.164 0.143 0.37 0.222 0.583 0.222 0.215 0 0.424-0.080 0.583-0.222 0.808-0.719 2.477-2.245 4.247-3.863 1.737-1.588 3.533-3.231 4.585-4.172 1.627-1.356 2.566-3.381 2.573-5.556 0.002-0.995-0.187-1.957-0.562-2.861zM13.295 5.256c0.958-1.246 2.37-1.96 3.877-1.96 1.283 0 2.503 0.52 3.437 1.461 0.489 0.492 0.878 1.075 1.152 1.735 0.281 0.681 0.424 1.41 0.424 2.161-0.002 0.831-0.18 1.63-0.532 2.372-0.335 0.7-0.817 1.328-1.398 1.815l-0.042 0.037c-0.911 0.817-2.468 2.234-4.624 4.21-1.686 1.543-2.836 2.592-3.599 3.283-1.164-1.051-3.060-2.782-4.737-4.313l-1.108-1.012c-1.058-0.969-1.894-1.733-2.206-2.011-0.019-0.016-0.037-0.033-0.056-0.052-0.061-0.054-0.124-0.11-0.192-0.166-1.194-1.014-1.885-2.522-1.897-4.137-0.005-0.749 0.136-1.475 0.417-2.159 0.276-0.665 0.665-1.253 1.157-1.747 0.941-0.951 2.164-1.473 3.437-1.473 1.506 0 2.92 0.712 3.877 1.955 0.311 0.403 0.798 0.642 1.307 0.642 0.506 0.002 0.995-0.239 1.304-0.642z"></path>
</svg>
