<!-- Generated by IcoMoon.io -->
<svg version="1.1" xmlns="http://www.w3.org/2000/svg" width="24" height="24" viewBox="0 0 24 24">
<title>mail</title>
<path d="M21.637 1.634h-19.255c-1.018 0-1.841 0.823-1.841 1.841v16.003c0 1.018 0.823 1.841 1.841 1.841h19.255c1.018 0 1.841-0.823 1.841-1.841v-16.003c0-1.015-0.826-1.841-1.841-1.841zM19.663 3.475l-6.896 5.763-0.036 0.038c-0.174 0.184-0.409 0.284-0.662 0.286-0.003 0-0.003 0-0.005 0-0.251 0-0.486-0.1-0.66-0.279l-0.036-0.036-7.001-5.773h15.295zM21.637 19.478h-19.255c0 0 0 0 0 0v-15.254l7.742 6.379c0.522 0.516 1.207 0.8 1.943 0.8 0.005 0 0.008 0 0.013 0 0.739-0.003 1.429-0.291 1.948-0.816l7.612-6.361v15.251c-0.003 0-0.003 0-0.003 0z"></path>
</svg>
