<!-- Generated by IcoMoon.io -->
<svg version="1.1" xmlns="http://www.w3.org/2000/svg" width="24" height="24" viewBox="0 0 24 24">
<title>pin-o</title>
<path d="M6.689 3.194c0.023 0.171 0.033 0.348 0.028 0.524l-0.028 0.926 0.724 0.575 6.257 4.96 0.941-0.307c0.741-0.243 1.516-0.366 2.301-0.366 0.828 0 1.644 0.138 2.424 0.407 0.458 0.159 0.897 0.363 1.314 0.606l-10.084 10.128c-0.447-0.754-0.759-1.59-0.915-2.457-0.215-1.202-0.128-2.449 0.251-3.608l0.307-0.941-0.614-0.775-4.922-6.205-0.926 0.028c-0.031 0-0.064 0.003-0.095 0.003-0.146 0-0.291-0.010-0.435-0.031l3.472-3.467zM7.063 0.574c-0.217 0-0.437 0.082-0.606 0.251l-5.61 5.597c-0.384 0.384-0.322 1.023 0.133 1.319 0.811 0.527 1.741 0.79 2.672 0.79 0.051 0 0.102 0 0.153-0.003l4.347 5.482c-0.951 2.912-0.417 6.2 1.603 8.683 0.176 0.215 0.43 0.325 0.683 0.325 0.225 0 0.447-0.084 0.621-0.258l5.267-5.288 5.707 5.707c0.164 0.164 0.376 0.243 0.588 0.243s0.427-0.082 0.588-0.243c0.325-0.325 0.325-0.854 0-1.179l-5.709-5.707 5.267-5.288c0.368-0.368 0.332-0.974-0.072-1.304-1.682-1.358-3.733-2.038-5.781-2.038-0.972 0-1.941 0.153-2.874 0.458l-5.482-4.347c0.031-0.979-0.23-1.964-0.782-2.815-0.166-0.253-0.437-0.386-0.713-0.386v0z"></path>
</svg>
