<!-- Generated by IcoMoon.io -->
<svg version="1.1" xmlns="http://www.w3.org/2000/svg" width="24" height="24" viewBox="0 0 24 24">
<title>pin</title>
<path d="M23.209 22.002l-5.709-5.709 5.267-5.288c0.368-0.368 0.332-0.974-0.072-1.304-2.48-2.002-5.755-2.529-8.655-1.58l-5.482-4.347c0.031-0.979-0.23-1.964-0.782-2.815-0.294-0.455-0.936-0.516-1.319-0.136l-5.61 5.597c-0.384 0.384-0.322 1.023 0.133 1.319 0.854 0.555 1.843 0.818 2.825 0.787l4.347 5.482c-0.951 2.912-0.417 6.2 1.603 8.683 0.33 0.404 0.936 0.437 1.304 0.066l5.267-5.287 5.707 5.707c0.164 0.164 0.376 0.243 0.588 0.243s0.427-0.082 0.588-0.243c0.327-0.322 0.327-0.851 0-1.176z"></path>
</svg>
