<!-- Generated by IcoMoon.io -->
<svg version="1.1" xmlns="http://www.w3.org/2000/svg" width="24" height="24" viewBox="0 0 24 24">
<title>search</title>
<path d="M23.719 22.353l-5.51-5.507c1.476-1.781 2.362-4.066 2.362-6.56 0-5.681-4.604-10.286-10.286-10.286s-10.286 4.604-10.286 10.286c0 5.681 4.604 10.286 10.286 10.286 2.494 0 4.779-0.887 6.56-2.363l5.51 5.51c0.188 0.188 0.434 0.281 0.683 0.281s0.493-0.094 0.683-0.281c0.372-0.378 0.372-0.988-0.003-1.366zM13.538 17.987c-1.029 0.437-2.121 0.656-3.252 0.656s-2.223-0.22-3.252-0.656c-0.994-0.421-1.888-1.023-2.657-1.792s-1.371-1.663-1.792-2.657c-0.437-1.029-0.656-2.121-0.656-3.252s0.22-2.223 0.656-3.252c0.421-0.994 1.023-1.888 1.792-2.657s1.663-1.371 2.657-1.792c1.029-0.437 2.121-0.656 3.252-0.656s2.223 0.22 3.252 0.656c0.994 0.421 1.888 1.023 2.657 1.792s1.371 1.663 1.792 2.657c0.437 1.029 0.656 2.121 0.656 3.252s-0.22 2.223-0.656 3.252c-0.421 0.994-1.023 1.888-1.792 2.657s-1.661 1.371-2.657 1.792z"></path>
</svg>
