<!-- Generated by IcoMoon.io -->
<svg version="1.1" xmlns="http://www.w3.org/2000/svg" width="24" height="24" viewBox="0 0 24 24">
<title>star-o</title>
<path d="M12 2.389c0.136 0 0.274 0.072 0.343 0.217l2.672 5.694c0.054 0.115 0.161 0.194 0.284 0.212l6.006 0.918c0.304 0.046 0.427 0.417 0.212 0.637l-4.367 4.477c-0.084 0.087-0.123 0.207-0.102 0.325l1.028 6.305c0.041 0.243-0.153 0.44-0.373 0.44-0.061 0-0.123-0.015-0.182-0.049l-5.339-2.951c-0.056-0.031-0.12-0.046-0.182-0.046s-0.125 0.015-0.182 0.046l-5.339 2.951c-0.059 0.033-0.123 0.049-0.182 0.049-0.217 0-0.412-0.194-0.373-0.44l1.028-6.305c0.020-0.118-0.018-0.238-0.102-0.325l-4.37-4.477c-0.215-0.22-0.089-0.591 0.212-0.637l6.009-0.918c0.125-0.018 0.23-0.1 0.284-0.212l2.672-5.694c0.069-0.146 0.207-0.217 0.343-0.217v0zM12 0.548c-0.407 0-0.803 0.11-1.148 0.32-0.376 0.228-0.672 0.557-0.859 0.956l-2.342 4.986-5.234 0.8c-0.826 0.125-1.503 0.695-1.769 1.488s-0.066 1.654 0.516 2.253l3.853 3.95-0.91 5.574c-0.105 0.644 0.077 1.296 0.499 1.792 0.424 0.499 1.041 0.785 1.693 0.785 0.373 0 0.744-0.097 1.074-0.279l4.628-2.557 4.628 2.559c0.33 0.182 0.701 0.279 1.074 0.279 0.652 0 1.268-0.286 1.693-0.785 0.422-0.496 0.603-1.148 0.499-1.792l-0.91-5.574 3.853-3.95c0.583-0.598 0.78-1.46 0.516-2.253-0.266-0.793-0.943-1.363-1.769-1.488l-5.234-0.803-2.342-4.986c-0.187-0.399-0.483-0.729-0.859-0.956-0.345-0.21-0.741-0.32-1.148-0.32v0z"></path>
</svg>
