<!-- Generated by IcoMoon.io -->
<svg version="1.1" xmlns="http://www.w3.org/2000/svg" width="24" height="24" viewBox="0 0 24 24">
<title>star</title>
<path d="M23.352 9.098c-0.266-0.793-0.943-1.363-1.769-1.488l-5.234-0.8-2.342-4.986c-0.187-0.399-0.483-0.729-0.859-0.956-0.345-0.21-0.744-0.32-1.148-0.32-0.407 0-0.803 0.11-1.148 0.32-0.376 0.228-0.672 0.557-0.859 0.956l-2.342 4.986-5.234 0.8c-0.826 0.125-1.503 0.695-1.769 1.488s-0.066 1.654 0.516 2.253l3.853 3.95-0.91 5.574c-0.105 0.644 0.077 1.296 0.499 1.792 0.424 0.499 1.041 0.785 1.693 0.785 0.373 0 0.744-0.097 1.074-0.279l4.628-2.557 4.628 2.559c0.33 0.182 0.701 0.279 1.074 0.279 0.652 0 1.268-0.286 1.693-0.785 0.422-0.496 0.603-1.148 0.499-1.792l-0.91-5.574 3.853-3.95c0.583-0.598 0.78-1.462 0.516-2.255z"></path>
</svg>
