<svg aria-hidden="true" style="position: absolute; width: 0; height: 0; overflow: hidden;" version="1.1" xmlns="http://www.w3.org/2000/svg" xmlns:xlink="http://www.w3.org/1999/xlink">
<defs>
<symbol id="logo" viewBox="0 0 24 24">
<title>logo</title>
<path d="M22.786 12.256l-0.161-0.198c-0.655-0.806-1.838-0.931-2.646-0.278l-0.907 0.732c-1.622-0.079-3.613-0.223-5.857-0.157-0.052 0.001-0.104 0.002-0.156 0.003-0.146 0.003-0.292 0.007-0.44 0.009-0.205 0.003-0.411 0.005-0.62 0.005s-0.415-0.002-0.619-0.005c-0.148-0.002-0.294-0.006-0.44-0.009-0.052-0.001-0.105-0.002-0.157-0.003-5.042-0.148-8.804-1.202-9.986-2.338v-3.877c2.181 1.379 6.791 2.108 11.202 2.108s9.021-0.729 11.202-2.108v5.84c-0.115 0.11-0.253 0.201-0.415 0.275zM5.719 17.257c-2.436-0.445-4.182-1.122-4.92-1.832v-3.877c0.587 0.371 1.346 0.695 2.233 0.97 1.488 0.481 3.433 0.849 5.801 1.023l-2.569 2.562c-0.001 0.001-0.002 0.002-0.004 0.004-0.321 0.322-0.501 0.731-0.541 1.151zM11.684 13.654c0.106 0.001 0.211 0.001 0.317 0.001 0.388 0 0.778-0.006 1.168-0.017 0.643-0.016 4.001-0.049 4.592-0.090l-0.098 0.103-3.305 2.669-2.674-2.666zM11.508 24c-5.656-0.081-10.143-1.56-10.657-3.522-0.033-0.056-0.052-0.119-0.052-0.186v-3.382c1.102 0.715 2.901 1.338 5.343 1.726 0.038 0.046 0.079 0.091 0.123 0.135l5.244 5.23zM23.202 4.663c-1.271 1.221-5.519 2.348-11.202 2.348s-9.93-1.127-11.202-2.348v-0.951c0-0.075 0.028-0.141 0.066-0.202 0.518-1.769 4.38-3.51 11.136-3.51 6.772 0 10.638 1.749 11.141 3.523 0.035 0.057 0.060 0.12 0.060 0.189v0.951z"></path>
<path d="M22.896 15.247l-1.476-1.472c-0.202-0.202-0.449-0.303-0.738-0.303s-0.536 0.101-0.738 0.303l-5.899 4.654-3.191-3.193c-0.203-0.202-0.449-0.303-0.738-0.303s-0.535 0.101-0.738 0.303l-1.476 1.472c-0.203 0.202-0.304 0.447-0.304 0.736s0.101 0.534 0.304 0.736l5.405 5.39c0.203 0.202 0.449 0.303 0.738 0.303s0.535-0.101 0.738-0.303l1.476-1.472 6.637-5.379c0.202-0.202 0.304-0.447 0.304-0.736s-0.101-0.534-0.304-0.736z"></path>
</symbol>
<symbol id="schedule" viewBox="0 0 24 24">
<title>schedule</title>
<path d="M20.51 7.073l-6.511-6.574c-0.105-0.105-0.22-0.195-0.345-0.27-0.033-0.019-0.066-0.037-0.101-0.054-0.021-0.012-0.045-0.021-0.066-0.030-0.211-0.094-0.443-0.145-0.68-0.145h-8.086c-0.933 0-1.711 0.755-1.711 1.688v20.625c0 0.933 0.778 1.688 1.711 1.688h14.602c0.933 0 1.664-0.755 1.664-1.688v-14.051c0-0.445-0.164-0.872-0.478-1.188zM13.676 2.588l4.706 4.725h-4.706v-4.725zM19.301 22.313h-14.602v-20.625h7.289v5.625c0 0.933 0.778 1.688 1.711 1.688h5.602v13.313zM13.699 11.344c0-0.466-0.377-0.844-0.844-0.844h-6c-0.466 0-0.844 0.377-0.844 0.844s0.377 0.844 0.844 0.844h6c0.466 0 0.844-0.377 0.844-0.844zM18.199 15.094c0-0.466-0.377-0.844-0.844-0.844h-10.5c-0.466 0-0.844 0.377-0.844 0.844s0.377 0.844 0.844 0.844h10.5c0.466 0 0.844-0.377 0.844-0.844zM15.199 18.844c0-0.466-0.377-0.844-0.844-0.844h-7.5c-0.466 0-0.844 0.377-0.844 0.844s0.377 0.844 0.844 0.844h7.5c0.466 0 0.844-0.377 0.844-0.844z"></path>
</symbol>
<symbol id="issue" viewBox="0 0 24 24">
<title>issue</title>
<path d="M20.51 5.573l-5.011-5.074c-0.105-0.105-0.22-0.195-0.345-0.27-0.033-0.019-0.066-0.037-0.101-0.054-0.021-0.012-0.045-0.021-0.066-0.030-0.211-0.094-0.443-0.145-0.68-0.145h-6.586c-0.933 0-1.711 0.755-1.711 1.688v1.312h-1.301c-0.933 0-1.699 0.764-1.699 1.697v17.625c0 0.933 0.766 1.678 1.699 1.678h11.602c0.933 0 1.676-0.745 1.676-1.678v-1.322h1.336c0.933 0 1.664-0.755 1.664-1.688v-12.551c0-0.445-0.164-0.872-0.478-1.188zM15.176 2.588l3.206 3.225h-3.206v-3.225zM16.301 22.313h-11.602v-17.625h1.313v14.625c0 0.933 0.778 1.688 1.711 1.688h8.578v1.313zM19.301 19.313h-11.602v-17.625h5.789v4.125c0 0.933 0.778 1.688 1.711 1.688h4.102v11.813z"></path>
</symbol>
<symbol id="forum" viewBox="0 0 24 24">
<title>forum</title>
<path d="M7.16 11.208h-3.113c-2.208 0-4.019-1.811-4.019-4.019v-3.17c0-2.208 1.811-4.019 4.019-4.019h3.113c2.208 0 4.019 1.811 4.019 4.019v3.113c0.057 2.264-1.755 4.075-4.019 4.075v0zM4.047 1.698c-1.302 0-2.321 1.075-2.321 2.321v3.113c0 1.302 1.075 2.321 2.321 2.321h3.113c1.302 0 2.321-1.075 2.321-2.321v-3.113c0-1.302-1.075-2.321-2.321-2.321h-3.113zM19.953 11.208h-3.113c-2.208 0-4.019-1.811-4.019-4.019v-3.17c0-2.208 1.811-4.019 4.019-4.019h3.113c2.208 0 4.019 1.811 4.019 4.019v3.113c0 2.264-1.811 4.075-4.019 4.075v0zM16.84 1.698c-1.302 0-2.321 1.075-2.321 2.321v3.113c0 1.302 1.075 2.321 2.321 2.321h3.113c1.302 0 2.321-1.075 2.321-2.321v-3.113c0-1.302-1.075-2.321-2.321-2.321h-3.113zM7.16 24h-3.113c-2.208 0-4.019-1.811-4.019-4.019v-3.113c0-2.208 1.811-4.019 4.019-4.019h3.113c2.208 0 4.019 1.811 4.019 4.019v3.113c0.057 2.208-1.755 4.019-4.019 4.019v0zM4.047 14.491c-1.302 0-2.321 1.075-2.321 2.321v3.113c0 1.302 1.075 2.321 2.321 2.321h3.113c1.302 0 2.321-1.075 2.321-2.321v-3.113c0-1.302-1.075-2.321-2.321-2.321h-3.113z"></path>
<path d="M22.5 15.792h-8.038c-0.453 0-0.849-0.396-0.849-0.849s0.396-0.849 0.849-0.849h8.094c0.453 0 0.849 0.396 0.849 0.849s-0.453 0.849-0.906 0.849v0zM21.142 19.585h-6.679c-0.453 0-0.849-0.396-0.849-0.849s0.396-0.849 0.849-0.849h6.679c0.453 0 0.849 0.396 0.849 0.849s-0.396 0.849-0.849 0.849zM17.802 23.434h-3.34c-0.453 0-0.849-0.396-0.849-0.849s0.396-0.849 0.849-0.849h3.34c0.453 0 0.849 0.396 0.849 0.849s-0.396 0.849-0.849 0.849z"></path>
</symbol>
</defs>
</svg>
