<?xml version="1.0" encoding="UTF-8"?>
<svg width="14px" height="18px" viewBox="0 0 14 18" version="1.1" xmlns="http://www.w3.org/2000/svg" xmlns:xlink="http://www.w3.org/1999/xlink">
    <!-- Generator: Sketch 54.1 (76490) - https://sketchapp.com -->
    <title>Shape</title>
    <desc>Created with Sketch.</desc>
    <g id="页面1" stroke="none" stroke-width="1" fill="none" fill-rule="evenodd">
        <g id="数据质量管理首页" transform="translate(-607.000000, -565.000000)" fill="#4EC189" fill-rule="nonzero">
            <path d="M616.333333,581.734375 L611.666667,581.734375 C611.303906,581.734375 611.010417,582.017383 611.010417,582.367188 C611.010417,582.716992 611.303906,583 611.666667,583 L616.333333,583 C616.696094,583 616.989583,582.716992 616.989583,582.367188 C616.989583,582.017383 616.696094,581.734375 616.333333,581.734375 Z M621,571.574219 C621,567.942578 617.866406,565 614,565 C610.133594,565 607,567.942578 607,571.574219 C607,574.007031 608.407292,576.132227 610.5,577.267773 L610.5,578.359375 C610.5,579.058984 611.086979,579.625 611.8125,579.625 L616.1875,579.625 C616.913021,579.625 617.5,579.058984 617.5,578.359375 L617.5,577.267773 C619.592708,576.132227 621,574.007031 621,571.574219 Z" id="Shape"></path>
        </g>
    </g>
</svg>