<?xml version="1.0" encoding="UTF-8"?>
<svg width="14px" height="14px" viewBox="0 0 14 14" version="1.1" xmlns="http://www.w3.org/2000/svg" xmlns:xlink="http://www.w3.org/1999/xlink">
    <!-- Generator: Sketch 54.1 (76490) - https://sketchapp.com -->
    <title>Shape</title>
    <desc>Created with Sketch.</desc>
    <g id="页面1" stroke="none" stroke-width="1" fill="none" fill-rule="evenodd">
        <g id="数据质量管理-质量检查规则" transform="translate(-1300.000000, -84.000000)" fill="#FBAE5B" fill-rule="nonzero">
            <path d="M1303.73282,85.6058639 C1303.74692,85.7108326 1303.75318,85.8189346 1303.75005,85.9270367 L1303.73282,86.4941808 L1304.17601,86.8466876 L1307.53354,89.5100716 L1308.00804,89.8860788 L1308.58433,89.6980752 C1309.03848,89.549239 1309.51298,89.4740376 1309.99375,89.4740376 C1310.50113,89.4740376 1311.00069,89.5586392 1311.47833,89.7231423 C1311.75864,89.8202775 1312.028,89.9456132 1312.28326,90.0944494 L1309.632,92.7578335 L1308.96018,93.4330797 L1308.76129,93.6336168 L1308.76129,93.6336168 L1306.1069,96.3001343 C1305.83285,95.8379588 1305.64179,95.3256491 1305.54627,94.7945389 C1305.41472,94.0581916 1305.46797,93.2936437 1305.69974,92.5839302 L1305.88766,92.0073859 L1305.51182,91.5326768 L1302.84959,88.1736795 L1302.49724,87.7303044 L1301.93034,87.747538 C1301.91155,87.747538 1301.89119,87.7491047 1301.8724,87.7491047 C1301.78314,87.7491047 1301.69387,87.742838 1301.60618,87.7303044 L1303.73282,85.6058639 L1303.73282,85.6058639 Z M1303.96146,84 C1303.82835,84 1303.69367,84.0501343 1303.59032,84.1535363 L1300.15448,87.5830349 C1299.91958,87.8180394 1299.95716,88.2097135 1300.23592,88.3914503 C1300.73234,88.7141898 1301.30237,88.8755595 1301.8724,88.8755595 C1301.90372,88.8755595 1301.93504,88.8755595 1301.96636,88.8739928 L1304.62858,92.2329902 C1304.04603,94.0174575 1304.37332,96.0322292 1305.61047,97.5534915 C1305.71853,97.685094 1305.87356,97.752462 1306.0286,97.752462 C1306.16641,97.752462 1306.30265,97.700761 1306.40914,97.5942256 L1309.63513,94.3542972 L1313.13047,97.8511638 C1313.2307,97.9514324 1313.36067,98 1313.49065,98 C1313.62063,98 1313.75218,97.9498657 1313.85084,97.8511638 C1314.04972,97.6521934 1314.04972,97.3278872 1313.85084,97.1289167 L1310.35393,93.6320501 L1313.57992,90.3921218 C1313.80542,90.1665175 1313.7835,89.7952104 1313.53607,89.5931065 C1312.50563,88.7611907 1311.24969,88.3444494 1309.99531,88.3444494 C1309.40023,88.3444494 1308.80671,88.4384512 1308.23511,88.6248881 L1304.87758,85.961504 C1304.89637,85.3614593 1304.73664,84.7582811 1304.39838,84.2365712 C1304.29659,84.0814682 1304.13059,84 1303.96146,84 L1303.96146,84 Z" id="Shape"></path>
        </g>
    </g>
</svg>