<?xml version="1.0" encoding="UTF-8"?>
<svg width="14px" height="14px" viewBox="0 0 14 14" version="1.1" xmlns="http://www.w3.org/2000/svg" xmlns:xlink="http://www.w3.org/1999/xlink">
    <!-- Generator: Sketch 54.1 (76490) - https://sketchapp.com -->
    <title>Shape</title>
    <desc>Created with Sketch.</desc>
    <g id="页面1" stroke="none" stroke-width="1" fill="none" fill-rule="evenodd">
        <g id="数据质量管理-质量检查规则" transform="translate(-1233.000000, -84.000000)" fill="#FBAE5B" fill-rule="nonzero">
            <path d="M1240.00034,85.1251256 C1240.08306,85.1251256 1240.16734,85.1688805 1240.20948,85.2579529 L1241.84042,88.7380288 C1241.8732,88.8083491 1241.93875,88.8567921 1242.01366,88.8677308 L1245.67978,89.4287309 C1245.8655,89.456859 1245.94042,89.6834468 1245.80932,89.8178368 L1243.14362,92.5540797 C1243.09212,92.6072106 1243.06871,92.6806563 1243.08119,92.7525393 L1243.7086,96.6060944 C1243.73357,96.7545485 1243.61496,96.8748744 1243.48073,96.8748744 C1243.44328,96.8748744 1243.40582,96.8654984 1243.36992,96.8451836 L1240.11115,95.0418574 C1240.07682,95.0231053 1240.0378,95.0137292 1240.00034,95.0137292 C1239.96289,95.0137292 1239.92387,95.0231053 1239.88953,95.0418574 L1236.63076,96.8451836 C1236.59487,96.8654984 1236.55585,96.8748744 1236.51995,96.8748744 C1236.38729,96.8748744 1236.26868,96.7561112 1236.29209,96.6060944 L1236.91949,92.7525393 C1236.93198,92.6806563 1236.90857,92.6072106 1236.85707,92.5540797 L1234.18981,89.8178368 C1234.05871,89.6834468 1234.13518,89.456859 1234.31935,89.4287309 L1237.98702,88.8677308 C1238.0635,88.8567921 1238.12749,88.8067865 1238.16026,88.7380288 L1239.79121,85.2579529 C1239.83335,85.1688805 1239.91763,85.1251256 1240.00034,85.1251256 L1240.00034,85.1251256 Z M1240.00034,84 C1239.75219,84 1239.51028,84.067195 1239.29958,84.1953343 C1239.07016,84.3344123 1238.88911,84.5359973 1238.77518,84.7797745 L1237.34557,87.8269896 L1234.15079,88.3161067 C1233.64668,88.3926778 1233.23309,88.7411541 1233.07077,89.2255832 C1232.90846,89.7100123 1233.0302,90.2366336 1233.38604,90.6022994 L1235.73803,93.0166313 L1235.18242,96.4232615 C1235.11843,96.8170555 1235.22924,97.2155374 1235.48676,97.5186963 C1235.74584,97.8234178 1236.12197,97.9984373 1236.51995,97.9984373 C1236.74782,97.9984373 1236.97412,97.9390557 1237.17545,97.8281058 L1240.00034,96.2654314 L1242.82523,97.8296685 C1243.02657,97.9406184 1243.25287,98 1243.48073,98 C1243.87872,98 1244.25485,97.8249805 1244.51393,97.520259 C1244.77144,97.2171001 1244.88226,96.8186181 1244.81827,96.4248242 L1244.26265,93.018194 L1246.61465,90.603862 C1246.97049,90.2381962 1247.09066,89.711575 1246.92991,89.2271459 C1246.7676,88.7427168 1246.35401,88.3942404 1245.8499,88.3176694 L1242.65512,87.8269896 L1241.2255,84.7797745 C1241.11157,84.5359973 1240.93053,84.3344123 1240.7011,84.1953343 C1240.49041,84.067195 1240.2485,84 1240.00034,84 L1240.00034,84 Z" id="Shape"></path>
        </g>
    </g>
</svg>